# xmcd
#
# Track frame offsets:
#	150
#	15245
#	36360
#	60837
#	77088
#	105409
#	122994
#	142714
#	163193
#	183925
#	212238
#
# Disc length: 3047 seconds
#
# Revision: 1
# Processed by: cddbd v1.5PL3 Copyright (c) Steve Scherf et al.
# Submitted via: audiograbber 1.83.01
#
DISCID=850be50b
DTITLE=Tom Ovans - Still In This World
DYEAR=2001
DGENRE=Folk
TTITLE0=Mama Went To Arkansas
TTITLE1=Cool Daddy
TTITLE2=Let My Spirit Fly
TTITLE3=I See You There
TTITLE4=Dark Road
TTITLE5=Sixth Avenue
TTITLE6=Underground Train
TTITLE7=Meeting On The Road
TTITLE8=Living in This Town
TTITLE9=The Night I Saw The Devil
TTITLE10=I Got A Feeling For You
EXTD=
EXTT0=
EXTT1=
EXTT2=
EXTT3=
EXTT4=
EXTT5=
EXTT6=
EXTT7=
EXTT8=
EXTT9=
EXTT10=
PLAYORDER=
